# xmcd
#
# Track frame offsets:
#	150
#	13125
#	24561
#	36787
#	48374
#	60600
#	73160
#	85650
#	98926
#	111265
#	120789
#	131364
#	141077
#	153562
#	165527
#	177190
#	189792
#	203103
#	214427
#	227746
#	239296
#	250507
#
# Disc length: 3495 seconds
#
# Revision: 1
# Processed by: cddbd v1.5.1PL0 Copyright (c) Steve Scherf et al.
# Submitted via: audiograbber 1.83.01
#
DISCID=250da516
DTITLE=Hawkshaw Hawkins - 22 Greatest Hits
DYEAR=1900
DGENRE=Country
TTITLE0=Sunny Side of The Mountain
TTITLE1=I'm Slowly Dying of A Broken Heart
TTITLE2=I Suppose
TTITLE3=Barbara Allen
TTITLE4=Rattlesnakin' Daddy
TTITLE5=I Wasted A Nickel
TTITLE6=I Love You A Thousand Ways
TTITLE7=Pan American
TTITLE8=Lonesome 7-7203
TTITLE9=Silver Threads And Golden Needles
TTITLE10=Got You On My Mind
TTITLE11=Teardrops On Your Letter
TTITLE12=Be My Life's Companion
TTITLE13=Dog House Boogie
TTITLE14=Little White Washed Chimney
TTITLE15=I'm Waiting Just For You
TTITLE16=Slow Poke
TTITLE17=Love Died Tonight
TTITLE18=After All We've Meant To Each Other
TTITLE19=A Heartache To Recall
TTITLE20=Loaded With Love
TTITLE21=If I Ever Get Rich Mom
EXTD=
EXTT0=
EXTT1=
EXTT2=
EXTT3=
EXTT4=
EXTT5=
EXTT6=
EXTT7=
EXTT8=
EXTT9=
EXTT10=
EXTT11=
EXTT12=
EXTT13=
EXTT14=
EXTT15=
EXTT16=
EXTT17=
EXTT18=
EXTT19=
EXTT20=
EXTT21=
PLAYORDER=
